<?xml version="1.0" encoding="utf-8"?>
<!-- Generator: Adobe Illustrator 25.2.0, SVG Export Plug-In . SVG Version: 6.00 Build 0)  -->
<svg version="1.1" id="Capa_1" xmlns="http://www.w3.org/2000/svg" xmlns:xlink="http://www.w3.org/1999/xlink" x="0px" y="0px"
	 viewBox="0 0 512 512" style="enable-background:new 0 0 512 512;" xml:space="preserve">
<style type="text/css">
	.st0{fill:#05424C;}
	.st1{fill:#003A51;}
	.st2{fill:#00B592;}
	.st3{fill:#6CDD47;}
</style>
<g>
	<g>
		<g>
			<g>
				<g>
					<g>
						<g>
							<circle class="st0" cx="256" cy="256" r="256"/>
						</g>
					</g>
				</g>
			</g>
		</g>
	</g>
	<path class="st1" d="M512,256c0-6.2-0.2-12.4-0.7-18.5L265.4,60.2l58.4,144L152.3,384.3l114.8,123.9c6.5,0.5,13.2,0.8,19.8,0.8
		C428.4,509,512,397.4,512,256L512,256z"/>
	<g>
		<path class="st2" d="M116.5,289.1c0-81.5,147.6-230.5,147.6-230.5s147.6,148.9,147.6,230.5s-66.1,147.6-147.6,147.6
			S116.5,370.6,116.5,289.1L116.5,289.1z"/>
	</g>
	<g>
		<path class="st3" d="M264.1,58.6L264,436.7c0,0,0,0,0.1,0c81.5,0,147.6-66.1,147.6-147.6S264.1,58.6,264.1,58.6L264.1,58.6z"/>
	</g>
</g>
</svg>
