<svg id="Capa_1" enable-background="new 0 0 512.004 512.004" height="512" viewBox="0 0 512.004 512.004" width="512" xmlns="http://www.w3.org/2000/svg"><g><g><path d="m121.002 240c-66.182 0-121-53.833-121-120s54.818-120 121-120 120 53.833 120 120-53.818 120-120 120z" fill="#f3f5f9"/></g><g><path d="m391.002 240c-66.182 0-120-53.833-120-120s53.818-120 120-120 121 53.833 121 120-54.818 120-121 120z" fill="#d8e0f0"/></g><g id="_x31_8-sorry_x2B_apologize_2_"><g><g><path d="m121.207 179.824c-5.625 0-11.338-.791-16.934-2.417-6.504-1.89-10.928-7.896-10.811-14.678.088-4.204-1.436-8.071-4.277-10.913-2.871-2.842-6.533-4.219-10.898-4.277-7.236.015-12.803-4.307-14.707-10.825-6.123-21.123-.381-43.784 15-59.15 15.322-15.322 37.998-21.108 59.15-14.971 6.504 1.89 10.928 7.896 10.811 14.678-.088 4.204 1.436 8.071 4.277 10.913 2.871 2.842 6.797 4.292 10.898 4.277 6.182.059 12.803 4.307 14.707 10.825 6.123 21.123.381 43.784-15 59.15-11.278 11.294-26.542 17.388-42.216 17.388z" fill="#4d4d80"/></g></g><g><path d="m391.207 179.824c-5.625 0-11.338-.791-16.934-2.417-6.504-1.89-10.928-7.896-10.811-14.678.088-4.204-1.436-8.071-4.277-10.913-2.871-2.842-6.65-4.219-10.898-4.277-6.562.015-12.803-4.307-14.707-10.825-6.123-21.123-.381-43.784 15-59.15 15.322-15.322 38.027-21.108 59.15-14.971 6.504 1.89 10.928 7.896 10.811 14.678-.088 4.204 1.436 8.071 4.277 10.913 2.871 2.842 6.68 4.292 10.898 4.277 6.826.059 12.803 4.307 14.707 10.825 6.123 21.123.381 43.784-15 59.15-11.278 11.294-26.542 17.388-42.216 17.388z" fill="#443d66"/></g><g><path d="m151.002 360c-24.814 0-45 20.186-45 45v60c0 24.814 20.186 47 45 47s45-22.186 45-47v-60c0-24.814-20.186-45-45-45zm15 105c0 8.276-6.738 15-15 15s-15-6.724-15-15v-60c0-8.276 6.738-15 15-15s15 6.724 15 15z" fill="#6cf"/><path d="m277.436 444.324c13.96-7.65 23.57-22.31 23.57-39.32 0-24.82-20.19-45-45-45h-30c-8.29 0-15 6.7-15 15v122c0 8.29 6.71 15 15 15s15-6.71 15-15v-47h5.74l9.26 19.24 16.58 34.46c3.65 7.29 12.54 10.45 20.13 6.71 7.41-3.7 10.4-12.71 6.7-20.12zm-21.43-24.32h-15v-30h15c8.26 0 15 6.72 15 15 0 8.27-6.74 15-15 15z" fill="#6cf"/><path d="m406.002 405c0-24.814-20.186-45-45-45h-30c-8.291 0-15 6.709-15 15 0 3.256 0 126.455 0 122 0 8.291 6.709 15 15 15s15-6.709 15-15v-47h5.742l25.84 53.709c3.654 7.288 12.542 10.45 20.127 6.709 7.412-3.706 10.4-12.715 6.709-20.127l-21.987-45.971c13.967-7.646 23.569-22.306 23.569-39.32zm-60 15v-30h15c8.262 0 15 6.724 15 15s-6.738 15-15 15z" fill="#59abff"/><path d="m46.002 420c-8.262 0-15-6.724-15-15 0-12.29 16.992-19.248 25.576-10.62 5.859 5.889 15.381 5.859 21.24.029 5.859-5.845 5.859-15.352.029-21.211-8.495-8.51-19.804-13.198-31.845-13.198-24.814 0-46 20.186-46 45s21.186 45 46 45c8.262 0 15 6.724 15 15 0 12.29-16.963 19.263-25.576 10.62-5.859-5.889-15.381-5.859-21.24-.029-5.859 5.845-5.859 15.352-.029 21.211 8.495 8.51 19.804 15.198 31.845 15.198 24.814 0 45-22.186 45-47s-20.186-45-45-45z" fill="#6cf"/><path d="m503.711 361.582c-7.383-3.633-17.406-.703-21.127 6.709l-16.582 33.164-16.582-33.164c-3.721-7.412-12.686-10.371-20.127-6.709-7.412 3.706-10.4 12.715-6.709 20.127l28.418 56.836v58.455c0 8.291 6.709 15 15 15s15-6.709 15-15v-58.455l29.418-56.836c3.691-7.412.703-16.421-6.709-20.127z" fill="#59abff"/><path d="m345.885 329.136c7.793-2.754 11.895-11.323 9.141-19.131-14.825-41.88-54.61-70.005-99.024-70.005s-84.199 28.125-99.023 70.005c-2.754 7.808 1.348 16.377 9.141 19.131 7.881 2.798 16.377-1.304 19.16-9.141 10.576-29.897 38.993-49.995 70.722-49.995s60.146 20.098 70.723 49.995c2.757 7.739 11.226 11.924 19.16 9.141z" fill="#ff6759"/></g></g><path d="m299.416 490.294c3.7 7.41.71 16.42-6.7 20.12-7.59 3.74-16.48.58-20.13-6.71l-16.58-34.46v-49.24c8.26 0 15-6.73 15-15 0-8.28-6.74-15-15-15v-30c24.81 0 45 20.18 45 45 0 17.01-9.61 31.67-23.57 39.32z" fill="#59abff"/><path d="m326.725 319.995c2.758 7.738 11.226 11.924 19.16 9.141 7.793-2.754 11.895-11.323 9.141-19.131-14.825-41.88-54.61-70.005-99.024-70.005v30c31.728 0 60.146 20.098 70.723 49.995z" fill="#e63a3a"/></g></svg>