<?xml version="1.0" encoding="UTF-8"?>
<svg fill="currentColor" stroke="currentColor" xmlns="http://www.w3.org/2000/svg" version="1.1" viewBox="0 0 297.8 297.8">
  <defs>

  </defs>
  <!-- Generator: Adobe Illustrator 28.7.1, SVG Export Plug-In . SVG Version: 1.2.0 Build 142)  -->
  <g>
    <g id="Ebene_1">
      <polygon class="cls-1" points="141.6 76.9 141.6 167.9 199.6 167.9 199.6 151.9 157.6 151.9 157.6 76.9 141.6 76.9"/>
      <path class="cls-1" d="M297.8,149.9c0-76.3-62.1-138.3-138.4-138.3S34.1,61.9,23.1,126.9H.9l38.3,66,39.4-66h-23c10.5-48,53.1-83.3,103.8-83.3s106.3,47.7,106.3,106.3-36.2,93.1-83.2,103.7v32.6c65-11,115.2-68,115.2-136.3Z"/>
      <path class="cls-1" d="M24.4,271.7l10.2-10.8c6.6-7.2,11.1-12.6,13.6-16.2,2.5-3.6,3.7-7.8,3.7-12.6,0-7.1-2.3-12.6-6.9-16.7-4.6-4.1-11.1-6.1-19.3-6.1s-14,2.4-18.7,7.3C2.1,221.5-.2,227.5,0,234.4v.4h17.1c0-4,.7-6.4,2.2-8.6,1.5-2.2,3.6-3.4,6.2-3.4s5.1.8,6.6,2.5c1.5,1.7,2.2,4,2.2,6.9s-.7,4.4-2.2,7.2c-1.4,2.8-3.5,5.9-6.6,9.4l-24,25.4v11.6h52v-14h-29s-.2-.1-.2-.1Z"/>
      <path class="cls-1" d="M101.6,210.9h-17v-.3l-30.4,48.6.8,10.7h29.5v16h17v-16h8v-13h-8s0-46,0-46ZM84.6,256.9h-14.9l12.9-21.5,1.5-2.3h.5s0,23.7,0,23.7Z"/>
      <path class="cls-1" d="M166.6,285.9v-32.4c0-2.4,0-4.6-.2-6.7-.7-5.2-2.1-9.2-4.4-12.1-3.3-4-7.8-6-13.6-6s-5.4.7-7.8,2.1c-2.4,1.4-5,3.4-6,5.9v-26.8h-18v76h18v-40.9c0-.9,1.7-1.6,2.9-2.1,1.2-.5,2.6-.7,4.3-.7,2.7,0,4.6.8,5.9,2.4,1.3,1.6,1.9,4.6,1.9,8.8v32.5h17,0Z"/>
    </g>
  </g>
</svg>
