<?xml version="1.0" encoding="UTF-8"?>
<svg fill="currentColor" stroke="currentColor" xmlns="http://www.w3.org/2000/svg" version="1.1" viewBox="0 0 254 254">
  <!-- Generator: Adobe Illustrator 28.7.1, SVG Export Plug-In . SVG Version: 1.2.0 Build 142)  -->
  <g>
    <g id="Capa_1">
      <path d="M126.5,48.3c-43.4,0-78.7,35.3-78.7,78.7s35.3,78.7,78.7,78.7,78.7-35.3,78.7-78.7-35.3-78.7-78.7-78.7ZM126.5,198.9c-39.6,0-71.9-32.2-71.9-71.9S86.9,55.1,126.5,55.1s71.9,32.3,71.9,71.9-32.2,71.9-71.9,71.9ZM193.4,127c0,36.9-29.9,66.8-66.8,66.8s-66.8-29.9-66.8-66.8,29.9-66.8,66.8-66.8c36.9,0,66.8,29.9,66.8,66.8ZM41.3,56.7v38.8s0,0,0,0c-.4,12.4-14,17.1-14,17.1v24.9h0v57.3s-5.5,7.1-12.6,0v-82.2h.2C6.6,109.2.4,107.9,0,95.6h0v-38.8h6.2s3,37.5,3,37.5h7.3l.9-38.3h6l.7,38.3h8.6l2-37.5h6.5ZM252.1,122.9h-15.2v77h-17.6V54.1h17.6s24,30.4,15.2,68.7Z" style="fill: #010002;"/>
    </g>
  </g>
</svg>
