<?xml version="1.0" encoding="UTF-8"?>
<svg fill="currentColor" stroke="currentColor" xmlns="http://www.w3.org/2000/svg" version="1.1" viewBox="0 0 512 512">
  <!-- Generator: Adobe Illustrator 28.7.1, SVG Export Plug-In . SVG Version: 1.2.0 Build 142)  -->
  <g>
    <g id="Layer_1">
      <path d="M399.9,316.2c-2.6-8.8-11.9-13.7-20.6-11.1l-27.1,8.2-9.7-44.5c-1.7-7.6-8.4-13-16.2-13h-140.6c-7.8,0-14.5,5.4-16.2,13l-9.7,44.5-27.1-8.2c-8.8-2.6-18,2.3-20.6,11.1-2.6,8.8,2.3,18,11.1,20.6l15.7,4.7c-6.6,7.3-10.7,17-10.7,27.6v63.6c0,8.4,6.3,15.4,14.4,16.4v.5c0,17.5,14.3,31.8,31.8,31.8h15.7c17.5,0,31.8-14.3,31.8-31.8v-.3h68.1v.3c0,17.5,14.3,31.8,31.8,31.8h15.7c17.5,0,31.8-14.3,31.8-31.8v-.5c8.1-1.1,14.4-8,14.4-16.4v-63.6c0-10.6-4-20.3-10.7-27.6l15.7-4.7c8.8-2.6,13.7-11.9,11.1-20.6ZM189.6,414.3c-11.6,0-21-9.4-21-21s9.4-21,21-21,21,9.4,21,21-9.4,21-21,21ZM190.5,328l8.5-39.2h113.9l8.5,39.2h-131ZM322.4,414.3c-11.6,0-21-9.4-21-21s9.4-21,21-21,21,9.4,21,21-9.4,21-21,21Z"/>
      <path d="M482,150.2h-4.4V46c0-9.2-7.4-16.6-16.6-16.6H51c-9.1,0-16.6,7.4-16.6,16.6v104.2h-4.4c-16.5,0-30,13.5-30,30v272.4c0,16.5,13.5,30,30,30h42c16.5,0,30-13.5,30-30V180.2c0-16.5-13.5-30-30-30h-4.4V62.6h376.8v87.6h-4.4c-16.5,0-30,13.5-30,30v272.4c0,16.5,13.5,30,30,30h42c16.5,0,30-13.5,30-30V180.2c0-16.5-13.5-30-30-30Z"/>
      <path d="M256,82.9c-4.6,0-8.3,3.7-8.3,8.3v16.6c0,4.6,3.7,8.3,8.3,8.3s8.3-3.7,8.3-8.3v-16.6c0-4.6-3.7-8.3-8.3-8.3Z"/>
      <path d="M256,120.2c-4.6,0-8.3,3.7-8.3,8.3v20.8c0,4.6,3.7,8.3,8.3,8.3s8.3-3.7,8.3-8.3v-20.8c0-4.6-3.7-8.3-8.3-8.3Z"/>
      <path d="M256,161.8c-4.6,0-8.3,3.7-8.3,8.3v16.6c0,4.6,3.7,8.3,8.3,8.3s8.3-3.7,8.3-8.3v-16.6c0-4.6-3.7-8.3-8.3-8.3Z"/>
      <path d="M233.7,83.1c-4.5-1-8.9,1.8-9.9,6.2l-3.7,16.1c-1,4.5,1.8,8.9,6.2,9.9.6.1,1.3.2,1.9.2,3.8,0,7.2-2.6,8.1-6.4l3.7-16.1c1-4.5-1.8-8.9-6.2-9.9Z"/>
      <path d="M225.1,120.3c-4.5-1-8.9,1.8-9.9,6.2l-4.9,21.1c-1,4.5,1.8,8.9,6.2,9.9.6.1,1.3.2,1.9.2,3.8,0,7.2-2.6,8.1-6.4l4.9-21.1c1-4.5-1.8-8.9-6.2-9.9Z"/>
      <path d="M215.4,162.4c-4.5-1-8.9,1.8-9.9,6.2l-3.7,16.1c-1.2,5.2,2.7,10.1,8.1,10.1s7.2-2.6,8.1-6.4l3.7-16.1c1-4.5-1.8-8.9-6.2-9.9Z"/>
      <path d="M291.9,105.4l-3.7-16.1c-1-4.5-5.5-7.2-9.9-6.2-4.5,1-7.2,5.5-6.2,9.9l3.7,16.1c.9,3.8,4.3,6.4,8.1,6.4s1.2,0,1.9-.2c4.5-1,7.2-5.5,6.2-9.9Z"/>
      <path d="M301.7,147.6l-4.9-21.1c-1-4.5-5.5-7.2-9.9-6.2-4.5,1-7.2,5.5-6.2,9.9l4.9,21.1c.9,3.8,4.3,6.4,8.1,6.4s1.2,0,1.9-.2c4.5-1,7.2-5.5,6.2-9.9Z"/>
      <path d="M310.2,184.8l-3.7-16.1c-1-4.5-5.5-7.2-9.9-6.2-4.5,1-7.2,5.5-6.2,9.9l3.7,16.1c1,4.4,5.5,7.2,9.9,6.2,4.5-1,7.2-5.5,6.2-9.9Z"/>
    </g>
  </g>
</svg>
