<?xml version="1.0" encoding="UTF-8"?>
<svg xmlns="http://www.w3.org/2000/svg" fill="currentColor" stroke="currentColor" version="1.1" viewBox="0 0 512 512">
  <!-- Generator: Adobe Illustrator 28.7.1, SVG Export Plug-In . SVG Version: 1.2.0 Build 142)  -->
  <g>
    <g id="solid">
      <path d="M248,380c-30.9,0-56,25.1-56,56s25.1,56,56,56,56-25.1,56-56-25.1-56-56-56ZM248,460c-13.3,0-24-10.7-24-24s10.7-24,24-24,24,10.7,24,24c0,13.2-10.8,24-24,24Z"/>
      <circle cx="248" cy="436" r="8"/>
      <path d="M336,500h160v-24c0-8.8-7.2-16-16-16h-128c-8.8,0-16,7.2-16,16v24Z"/>
      <path d="M384,412h64v32h-64v-32Z"/>
      <path d="M432,113.9c0-33.2-27-60-60.1-60-2.6,0-5.2.2-7.8.5-30.3,4.6-52.5,30.9-52.1,61.6v40c0,26.5-21.5,48-48,48h-72.9c-8.8,0-16,7.2-16,16,0,.9,0,1.8.2,2.7,1.6,7.9,8.6,13.5,16.6,13.3h72c44.2,0,80-35.8,80-80v-42.1c0-15.5,12.6-28,28.1-28,1.9,0,3.9.2,5.8.6,13.1,3,22.3,14.8,22.1,28.2v281.3h32V113.9Z"/>
      <path d="M184,276c-30.9.1-56.1-24.9-56.2-55.8-.1-30.9,24.9-56.1,55.8-56.2,18.4,0,35.6,8.9,46.2,24h18.2v-40H32v266.8c24.9-8.9,52.3,4,61.2,28.9,1.9,5.2,2.8,10.7,2.8,16.3h84.2c-13.4-37.3,6.1-78.4,43.4-91.8,7.8-2.8,16.1-4.2,24.4-4.2v-112h-18.2c-10.4,15-27.5,24-45.8,24Z"/>
      <path d="M159.6,225.2c-2.9-17.4,8.9-33.9,26.4-36.8,1.7-.3,3.5-.4,5.2-.4h16.7c-6.9-5.2-15.2-8-23.8-8-22.1,0-40,17.9-40,40s17.9,40,40,40c8.6,0,16.9-2.8,23.8-8h-15.8c-15.9.1-29.5-11.2-32.4-26.8Z"/>
      <path d="M32,100h216v32H32v-32Z"/>
      <path d="M168,12h-56c-41.1,0-75.5,31.1-79.6,72h215.2c-4.1-40.9-38.5-72-79.6-72Z"/>
      <circle cx="48" cy="460" r="32"/>
    </g>
  </g>
</svg>
