<svg fill="currentColor" stroke="currentColor" id="solid" viewBox="0 0 64 64" width="512" xmlns="http://www.w3.org/2000/svg">
    <path d="m31 47.5a7 7 0 1 0 7 7 7 7 0 0 0 -7-7zm0 10a3 3 0 1 1 3-3 3.0033 3.0033 0 0 1 -3 3z"/>
    <circle cx="31" cy="54.5" r="1"/>
    <path d="m42 62.5h20v-3a2 2 0 0 0 -2-2h-16a2 2 0 0 0 -2 2z"/>
    <path d="m48 51.5h8v4h-8z"/>
    <path
        d="m54 14.2389a7.5089 7.5089 0 0 0 -8.4868-7.4365 7.6753 7.6753 0 0 0 -6.5132 7.6976v5a6 6 0 0 1 -6 6h-9.1069a2.0013 2.0013 0 0 0 -1.9726 2.3358 2.0744 2.0744 0 0 0 2.0795 1.6642h9a10 10 0 0 0 10-10v-5.2611a3.5062 3.5062 0 0 1 4.2352-3.4246 3.5648 3.5648 0 0 1 2.7648 3.5257v35.16h4z"/>
    <path
        d="m23 34.5a7 7 0 1 1 5.7192-11h2.2808v-5h-27v33.35a5.9835 5.9835 0 0 1 8 5.65h10.5251a8.9751 8.9751 0 0 1 8.4749-12v-14h-2.2808a6.9852 6.9852 0 0 1 -5.7192 3z"/>
    <path
        d="m19.9463 28.1553a4.002 4.002 0 0 1 3.9473-4.6553h2.0824a4.9494 4.9494 0 0 0 -2.976-1 5 5 0 0 0 0 10 4.9491 4.9491 0 0 0 2.9759-1h-1.9759a4.09 4.09 0 0 1 -4.0537-3.3447z"/>
    <path d="m4 12.5h27v4h-27z"/>
    <path d="m21 1.5h-7a10 10 0 0 0 -9.9495 9h26.8995a10 10 0 0 0 -9.95-9z"/>
    <circle cx="6" cy="57.5" r="4"/>
</svg>
